<svg width="25px" height="8px" viewBox="0 0 25 8" version="1.1" xmlns="http://www.w3.org/2000/svg" xmlns:xlink="http://www.w3.org/1999/xlink" xmlns:sketch="http://www.bohemiancoding.com/sketch/ns">
    <defs></defs>
    <g id="Page-1" stroke="none" stroke-width="1" fill="none" fill-rule="evenodd" sketch:type="MSPage">
        <path d="M25,4 L19.3125,0.5 L19.3125,2.33333333 L5.84375,2.33333333 C5.3125,1.33333333 4.28125,0.666666667 3.125,0.666666667 C1.40625,0.666666667 0,2.16666667 0,4 C0,5.83333333 1.40625,7.33333333 3.125,7.33333333 C4.28125,7.33333333 5.28125,6.66666667 5.84375,5.66666667 L5.84375,5.66666667 L19.34375,5.66666667 L19.34375,7.5 L25,4 L25,4 Z M3.125,6 C2.09375,6 1.25,5.1 1.25,4 C1.25,2.9 2.09375,2 3.125,2 C4.15625,2 5,2.9 5,4 C5,5.1 4.15625,6 3.125,6 L3.125,6 Z" id="flow" fill="#000000" sketch:type="MSShapeGroup"></path>
    </g>
</svg>